<svg xmlns="http://www.w3.org/2000/svg" width="805" height="600"><rect width="805" height="600" x="0" y="0" fill="#FFFFFF" id="backgorund"/><g id="viz"><clipPath id="serieClipPath"><rect x="-50" y="-10" width="805" height="600"/></clipPath><g transform="translate(0,0)"><g transform="translate(50,10)" clip-path="url(#serieClipPath)"><g id="axis"><g transform="translate(0,570)" fill="none" font-size="10" font-family="sans-serif" text-anchor="middle"><path class="domain" stroke="currentColor" d="M0.5,6V0.5H740.5V6"/><g class="tick" opacity="1" transform="translate(0.5,0)"><line stroke="currentColor" y2="6"/><text fill="currentColor" y="9" dy="0.71em">500</text></g><g class="tick" opacity="1" transform="translate(93,0)"><line stroke="currentColor" y2="6"/><text fill="currentColor" y="9" dy="0.71em">505</text></g><g class="tick" opacity="1" transform="translate(185.5,0)"><line stroke="currentColor" y2="6"/><text fill="currentColor" y="9" dy="0.71em">510</text></g><g class="tick" opacity="1" transform="translate(278,0)"><line stroke="currentColor" y2="6"/><text fill="currentColor" y="9" dy="0.71em">515</text></g><g class="tick" opacity="1" transform="translate(370.5,0)"><line stroke="currentColor" y2="6"/><text fill="currentColor" y="9" dy="0.71em">520</text></g><g class="tick" opacity="1" transform="translate(463,0)"><line stroke="currentColor" y2="6"/><text fill="currentColor" y="9" dy="0.71em">525</text></g><g class="tick" opacity="1" transform="translate(555.5,0)"><line stroke="currentColor" y2="6"/><text fill="currentColor" y="9" dy="0.71em">530</text></g><g class="tick" opacity="1" transform="translate(648,0)"><line stroke="currentColor" y2="6"/><text fill="currentColor" y="9" dy="0.71em">535</text></g><g class="tick" opacity="1" transform="translate(740.5,0)"><line stroke="currentColor" y2="6"/><text fill="currentColor" y="9" dy="0.71em">540</text></g><text x="740" dy="-5" text-anchor="end" style="font-family: Arial, sans-serif; font-size: 12px; fill: rgb(123, 123, 123); font-weight: bold;">開盤</text></g><g transform="translate(0,0)" fill="none" font-size="10" font-family="sans-serif" text-anchor="end"><path class="domain" stroke="currentColor" d="M0.5,570.5V0.5"/><g class="tick" opacity="1" transform="translate(0,570.5)"><line stroke="currentColor" x2="-6"/><text fill="currentColor" x="-9" dy="0.32em">12</text></g><g class="tick" opacity="1" transform="translate(0,529.7857142857143)"><line stroke="currentColor" x2="-6"/><text fill="currentColor" x="-9" dy="0.32em">14</text></g><g class="tick" opacity="1" transform="translate(0,489.0714285714286)"><line stroke="currentColor" x2="-6"/><text fill="currentColor" x="-9" dy="0.32em">16</text></g><g class="tick" opacity="1" transform="translate(0,448.35714285714283)"><line stroke="currentColor" x2="-6"/><text fill="currentColor" x="-9" dy="0.32em">18</text></g><g class="tick" opacity="1" transform="translate(0,407.64285714285717)"><line stroke="currentColor" x2="-6"/><text fill="currentColor" x="-9" dy="0.32em">20</text></g><g class="tick" opacity="1" transform="translate(0,366.9285714285714)"><line stroke="currentColor" x2="-6"/><text fill="currentColor" x="-9" dy="0.32em">22</text></g><g class="tick" opacity="1" transform="translate(0,326.2142857142857)"><line stroke="currentColor" x2="-6"/><text fill="currentColor" x="-9" dy="0.32em">24</text></g><g class="tick" opacity="1" transform="translate(0,285.5)"><line stroke="currentColor" x2="-6"/><text fill="currentColor" x="-9" dy="0.32em">26</text></g><g class="tick" opacity="1" transform="translate(0,244.7857142857143)"><line stroke="currentColor" x2="-6"/><text fill="currentColor" x="-9" dy="0.32em">28</text></g><g class="tick" opacity="1" transform="translate(0,204.07142857142856)"><line stroke="currentColor" x2="-6"/><text fill="currentColor" x="-9" dy="0.32em">30</text></g><g class="tick" opacity="1" transform="translate(0,163.35714285714286)"><line stroke="currentColor" x2="-6"/><text fill="currentColor" x="-9" dy="0.32em">32</text></g><g class="tick" opacity="1" transform="translate(0,122.64285714285715)"><line stroke="currentColor" x2="-6"/><text fill="currentColor" x="-9" dy="0.32em">34</text></g><g class="tick" opacity="1" transform="translate(0,81.92857142857146)"><line stroke="currentColor" x2="-6"/><text fill="currentColor" x="-9" dy="0.32em">36</text></g><g class="tick" opacity="1" transform="translate(0,41.214285714285694)"><line stroke="currentColor" x2="-6"/><text fill="currentColor" x="-9" dy="0.32em">38</text></g><g class="tick" opacity="1" transform="translate(0,0.5)"><line stroke="currentColor" x2="-6"/><text fill="currentColor" x="-9" dy="0.32em">40</text></g><text x="4" text-anchor="start" dominant-baseline="hanging" style="font-family: Arial, sans-serif; font-size: 12px; fill: rgb(123, 123, 123); font-weight: bold;">本益比</text></g></g><g id="viz"><g><path d="M92.5,552.03075C148,552.03075,148,549.4352142857143,203.50000000000003,549.4352142857143C222,549.4352142857143,222,546.3185357142858,240.5,546.3185357142858C259,546.3185357142858,259,14.022000000000038,277.5,14.022000000000038C286.75,14.022000000000038,286.75,545.2803214285714,296,545.2803214285714C305.25,545.2803214285714,305.25,548.397,314.5,548.397C333,548.397,333,544.7612142857142,351.5,544.7612142857142C360.75,544.7612142857142,360.75,543.723,370,543.723C379.25,543.723,379.25,271.6029642857142,388.5,271.6029642857142C416.25,271.6029642857142,416.25,269.52450000000005,444,269.52450000000005C453.25,269.52450000000005,453.25,270.5627142857143,462.5,270.5627142857143C490.25,270.5627142857143,490.25,534.8941071428571,518,534.8941071428571C564.25,534.8941071428571,564.25,263.2931785714286,610.5,263.2931785714286C638.25,263.2931785714286,638.25,534.375,666,534.375" stroke="#1f77b4" fill="none"/><text font-family="sans-serif" font-size="10" class="labels" x="277.5" y="14.022000000000038" dx="0" dy="-4" text-anchor="middle"/></g></g></g><text y="4" x="4" style="font-family: Arial, sans-serif; font-size: 12px; fill: black; font-weight: bold; dominant-baseline: hanging;"/></g><g id="grid"><rect x="0" y="0" width="805" height="600" fill="none" stroke="#ccc"/></g></g></svg>